<svg width="30" height="30" viewBox="0 0 30 30" xmlns="http://www.w3.org/2000/svg">
    <path d="M15 26.25c-2.435 0-4.502-.808-6.201-2.423-1.7-1.615-2.549-3.58-2.549-5.895 0-1.882.59-3.564 1.77-5.046 1.181-1.483 2.725-2.473 4.632-2.97a6.658 6.658 0 0 1-1.319-.439 4.061 4.061 0 0 1-1.138-.76 4.402 4.402 0 0 1-1.3-2.27 9.027 9.027 0 0 1-.191-2.67 10.315 10.315 0 0 1 2.764.174 4.813 4.813 0 0 1 2.37 1.206 4.062 4.062 0 0 1 1.114 1.62c.227.615.37 1.26.429 1.933a10.603 10.603 0 0 1 2.405-3.425.989.989 0 0 1 .709-.266c.286 0 .523.089.709.266a.89.89 0 0 1 .28.674.89.89 0 0 1-.28.674c-.485.461-.914.964-1.287 1.509a6.992 6.992 0 0 0-.867 1.74c1.975.441 3.585 1.41 4.83 2.909 1.247 1.498 1.87 3.211 1.87 5.14 0 2.316-.85 4.28-2.549 5.896-1.699 1.615-3.766 2.423-6.201 2.423zm0-1.92c1.862 0 3.45-.623 4.762-1.871 1.313-1.248 1.969-2.757 1.969-4.527s-.656-3.28-1.969-4.527c-1.312-1.248-2.9-1.872-4.762-1.872-1.862 0-3.45.624-4.762 1.872-1.313 1.247-1.969 2.757-1.969 4.527s.656 3.28 1.969 4.527c1.312 1.248 2.9 1.871 4.762 1.871z" fill-rule="nonzero" fill="#FF7D29"/>
</svg>
