<svg width="30" height="30" viewBox="0 0 30 30" xmlns="http://www.w3.org/2000/svg">
    <path d="M14.028 6.094c0-1.295 1.088-2.344 2.43-2.344 1.343 0 2.43 1.05 2.43 2.344 0 1.294-1.087 2.343-2.43 2.343-1.342 0-2.43-1.049-2.43-2.343zm9.722 14.531v4.688c0 .518-.435.937-.972.937-.538 0-.972-.42-.972-.938v-4.687h-5.834c-1.608 0-2.916-1.262-2.916-2.813V12.43l-1.792 1.324a.393.393 0 0 0-.132.44l.91 2.89a.933.933 0 0 1-.649 1.17c-.515.15-1.057-.132-1.212-.626l-.902-2.864c-.307-.888.01-1.899.794-2.492l2.39-1.766c1.177-.947 2.144-1.131 3.508-1.131 1.608 0 2.917 1.262 2.917 2.813v6.562h2.917c1.072 0 1.944.84 1.944 1.875h.001zm-7.778-1.875h.972v-6.563c0-.516-.435-.937-.972-.937a5.3 5.3 0 0 0-.972.077v6.486c0 .517.436.937.972.937zm-2.123 2.861c-.514-.166-1.06.101-1.23.593l-.75 2.171H7.221c-.537 0-.972.42-.972.938s.435.937.972.937h4.646c.839 0 1.58-.516 1.844-1.282l.75-2.17a.93.93 0 0 0-.614-1.187z" fill-rule="nonzero" fill="#55BCA8"/>
</svg>
