<svg width="24" height="23" viewBox="0 0 24 23" xmlns="http://www.w3.org/2000/svg">
    <path d="M19.912 12.964c-.355-.59-.723-1.199-.7-1.712.01-.242.047-.483.086-.739.056-.37.114-.752.094-1.16-.114-2.251-1.292-4.15-3.315-5.344-2.236-1.319-5.137-1.501-7.572-.475a7.225 7.225 0 0 0-2.962 2.273c-.732.966-1.148 2.054-1.203 3.148-.099 1.93.963 3.64 2.913 4.688.541.29 1.164.525 1.767.752.9.34 1.831.69 2.487 1.228.036.03.074.078.113.13.106.137.283.368.62.33l.15-.018.074-.127c.676-1.16 1.608-2.202 2.666-3.349.196-.212.41-.421.618-.623C16.81 10.93 17.91 9.86 16.86 8.04a3.368 3.368 0 0 0-2.33-1.623 3.321 3.321 0 0 0-2.463.518c-1.19-.81-2.638-.794-3.832.058-.813.579-1.317 1.458-1.348 2.35-.028.792.314 1.52.963 2.05a.433.433 0 0 0 .603-.058.385.385 0 0 0-.041-.532c-.948-.865-.737-1.908-.223-2.595.622-.832 1.867-1.371 3.043-.79.115.057.221.14.333.228.104.081.212.165.338.24l.194.113.165-.15a2.497 2.497 0 0 1 1.815-.662 2.483 2.483 0 0 1 1.73.863c.594.674.727 1.307.42 1.99-.289.64-.922 1.25-1.534 1.84-.278.27-.566.547-.812.82-.646.717-1.314 1.481-1.83 2.298a1.02 1.02 0 0 0-.108-.098c-.808-.603-1.787-.984-2.734-1.353-1.866-.727-3.63-1.414-3.94-3.711C4.857 6.802 7.054 4.92 9.247 4.17c1.481-.506 3.11-.584 4.588-.218 1.611.4 2.907 1.29 3.747 2.574.966 1.476.91 2.443.818 4.045l-.024.425c-.052.974.315 1.584.703 2.23.157.26.32.531.462.84l.045.093c.045.094.175.363.197.483-.096.057-.413.086-.588.102-.456.043-.928.086-1.101.442-.168.344-.05.667.036.903.115.315.098.323-.063.404l-.316.158.219.269c.079.096.102.15.109.172a1.045 1.045 0 0 1-.111.09c-.143.108-.338.255-.402.526-.073.306.07.55.185.745.157.268.21.358-.072.596-.455.384-1.286.275-2.019.178-.22-.03-.426-.057-.622-.072a.433.433 0 0 0-.324.11.393.393 0 0 0-.13.307c.008.18.141.334.324.375a7.81 7.81 0 0 0 1.607.178h.03c.766-.004 1.343-.149 1.716-.43.313-.238.48-.574.48-.973 0-.28-.152-.523-.262-.7a3.004 3.004 0 0 1-.07-.116c.034-.028.088-.063.125-.087.121-.08.259-.17.325-.32.102-.229.054-.436.023-.573l-.01-.042a.69.69 0 0 0 .216-.399c.026-.192-.044-.383-.11-.568-.034-.09-.087-.237-.085-.3a.336.336 0 0 1 .074-.02c.152-.028.307-.046.456-.063.451-.052.877-.1 1.09-.436.162-.253.147-.601-.046-1.094-.132-.337-.338-.679-.556-1.04" stroke-width=".4" fill="#008EFF" stroke="#008EFF" fill-rule="evenodd"/>
</svg>
