<svg width="30" height="30" viewBox="0 0 30 30" xmlns="http://www.w3.org/2000/svg">
    <g fill="#FB6161" fill-rule="evenodd">
        <path d="M3.75 9.48V7.127c0-.595.207-1.098.622-1.51C4.786 5.207 5.292 5 5.89 5h18.218c.598 0 1.105.206 1.52.618.414.411.621.914.621 1.509v5.588a.85.85 0 0 1-.255.629.862.862 0 0 1-.633.253.862.862 0 0 1-.633-.253.85.85 0 0 1-.255-.629V7.127a.344.344 0 0 0-.114-.25.349.349 0 0 0-.25-.112H5.89a.349.349 0 0 0-.25.113.344.344 0 0 0-.114.249V9.48a.85.85 0 0 1-.255.629.862.862 0 0 1-.633.253.862.862 0 0 1-.633-.253.85.85 0 0 1-.255-.63zm2.14 13.167a2.073 2.073 0 0 1-1.518-.618 2.046 2.046 0 0 1-.622-1.509v-2.353c0-.25.085-.46.255-.628a.862.862 0 0 1 .633-.254c.252 0 .463.085.633.254a.85.85 0 0 1 .255.628v2.353c0 .09.038.174.114.25.076.075.16.112.25.112h6.56c.252 0 .463.085.632.254a.85.85 0 0 1 .256.629.85.85 0 0 1-.256.629.862.862 0 0 1-.632.253H5.89z" opacity=".5"/>
        <path d="M9.079 19.412a.984.984 0 0 1-.474-.117.757.757 0 0 1-.33-.36l-2.104-4.23H4.657a.863.863 0 0 1-.634-.253.85.85 0 0 1-.255-.628c0-.25.085-.46.255-.63a.863.863 0 0 1 .634-.253h2.072a.83.83 0 0 1 .453.131.885.885 0 0 1 .321.358l1.576 3.12 3.933-7.826a.73.73 0 0 1 .336-.323 1.062 1.062 0 0 1 .93 0c.144.072.254.18.33.323l2.166 4.292c-.264.17-.52.345-.765.524a4.956 4.956 0 0 0-.681.596l-1.523-3.027-3.934 7.825a.759.759 0 0 1-.33.361.96.96 0 0 1-.462.117zM20.92 25c-1.479 0-2.736-.515-3.773-1.545-1.037-1.03-1.556-2.28-1.556-3.75 0-1.468.519-2.718 1.556-3.748 1.037-1.03 2.294-1.545 3.773-1.545s2.737.515 3.774 1.545c1.037 1.03 1.555 2.28 1.555 3.749 0 1.469-.518 2.719-1.555 3.749C23.658 24.485 22.4 25 20.92 25zm2.357-6.903a.513.513 0 0 0 .16-.36.492.492 0 0 0-.16-.373.505.505 0 0 0-.369-.154.505.505 0 0 0-.369.154l-1.751 1.722a.523.523 0 0 0 0 .751c.103.103.23.154.378.154a.516.516 0 0 0 .378-.154l1.733-1.74z" fill-rule="nonzero"/>
    </g>
</svg>
