<svg width="30" height="30" viewBox="0 0 30 30" xmlns="http://www.w3.org/2000/svg">
    <g fill-rule="nonzero" fill="none">
        <path d="M29 15c0 7.732-6.268 14-14 14S1 22.732 1 15 7.268 1 15 1a14 14 0 0 1 14 14z" fill-opacity=".299" fill="#91BAA2"/>
        <path d="M15 0C6.716 0 0 6.716 0 15c0 8.284 6.716 15 15 15 8.284 0 15-6.716 15-15C29.991 6.72 23.28.009 15 0zm0 27.692C7.99 27.692 2.308 22.01 2.308 15S7.99 2.308 15 2.308 27.692 7.99 27.692 15C27.684 22.006 22.006 27.684 15 27.692zM20.72 9.28a.953.953 0 0 0-1.347 0L15 13.652l-4.373-4.373a.953.953 0 0 0-1.348 1.348L13.652 15l-4.373 4.373a.953.953 0 0 0 1.348 1.348L15 16.348l4.373 4.373a.953.953 0 0 0 1.348-1.348L16.348 15l4.373-4.373a.953.953 0 0 0 0-1.348z" fill="#018440"/>
    </g>
</svg>
