<svg width="30" height="30" viewBox="0 0 30 30" xmlns="http://www.w3.org/2000/svg">
    <path d="M27.284 15c0 1.87-1.488 3.387-3.324 3.387H21.03c-1.495 0-2.707 1.239-2.707 2.767h.007l-.007.008v2.684c0 1.87-1.488 3.386-3.324 3.386-1.836 0-3.324-1.516-3.324-3.386v-2.692c4.758 0 8.683-3.62 9.274-8.302h-2.743c-.569 3.146-3.273 5.532-6.525 5.535H6.04c-1.835 0-3.323-1.516-3.323-3.387 0-1.87 1.488-3.387 3.324-3.387H8.97c1.494 0 2.706-1.239 2.706-2.767h-.007l.007-.008V6.154c0-1.87 1.488-3.386 3.324-3.386 1.836 0 3.324 1.516 3.324 3.386v2.692c-4.758 0-8.683 3.62-9.274 8.302h2.744c.565-3.126 3.237-5.5 6.462-5.533v-.002h5.704c1.836 0 3.324 1.516 3.324 3.387zM23.96 8.846h-2.92V6.154C21.04 2.761 18.332 0 15 0c-3.33 0-6.04 2.76-6.04 6.154v2.692H6.04C2.71 8.846 0 11.606 0 15s2.71 6.154 6.04 6.154h2.92v2.692C8.96 27.239 11.67 30 15 30c3.331 0 6.04-2.76 6.04-6.154v-2.692h2.92c3.33 0 6.04-2.76 6.04-6.154s-2.71-6.154-6.04-6.154z" fill="#018440" fill-rule="evenodd"/>
</svg>
