<svg width="30" height="30" viewBox="0 0 30 30" xmlns="http://www.w3.org/2000/svg">
    <g fill="#FB6161" fill-rule="evenodd">
        <path d="M14.028 19.121a.92.92 0 0 0 .576-.185c.162-.124.277-.285.345-.483l1.38-4.035.895 1.287c.086.132.205.24.358.322.154.083.316.124.486.124h7.16c.289 0 .532-.095.728-.285a.942.942 0 0 0 .294-.705.942.942 0 0 0-.294-.706 1.007 1.007 0 0 0-.729-.284h-6.57l-1.765-2.525a.958.958 0 0 0-.396-.334 1.242 1.242 0 0 0-.524-.112.92.92 0 0 0-.576.186 1.005 1.005 0 0 0-.345.483l-1.38 4.01-.87-1.263a.952.952 0 0 0-.358-.321 1.011 1.011 0 0 0-.486-.124H4.773c-.29 0-.533.095-.729.284a.942.942 0 0 0-.294.706c0 .28.098.516.294.705.196.19.439.285.729.285h6.57l1.765 2.525c.102.148.234.26.396.334.162.074.337.111.524.111z" fill-rule="nonzero"/>
        <path d="M15 5.83a6.046 6.046 0 0 1 2.071-1.535 6.063 6.063 0 0 1 2.531-.545c1.5 0 2.774.462 3.823 1.386 1.048.924 1.64 2.112 1.777 3.564a.864.864 0 0 1-.269.706c-.196.19-.439.293-.728.31a.926.926 0 0 1-.73-.26 1.035 1.035 0 0 1-.319-.706c-.102-.891-.481-1.617-1.138-2.178-.656-.561-1.461-.842-2.416-.842-.682 0-1.325.165-1.93.495-.605.33-1.078.76-1.42 1.287a1.486 1.486 0 0 1-.574.52c-.23.116-.465.173-.704.173-.238 0-.468-.057-.69-.173a1.335 1.335 0 0 1-.537-.52c-.34-.528-.814-.957-1.419-1.287a3.972 3.972 0 0 0-1.93-.495c-.955 0-1.76.28-2.416.842-.657.56-1.036 1.287-1.138 2.178-.017.28-.124.516-.32.705a.926.926 0 0 1-.729.26 1.102 1.102 0 0 1-.728-.31.864.864 0 0 1-.269-.705c.137-1.452.729-2.64 1.777-3.564 1.049-.924 2.323-1.386 3.823-1.386.886 0 1.73.182 2.531.545A6.046 6.046 0 0 1 15 5.829zM15 26.25c-.239 0-.477-.041-.716-.124a1.717 1.717 0 0 1-.64-.396 81.52 81.52 0 0 1-2.032-1.794c-.622-.57-1.206-1.11-1.751-1.622-.239-.23-.345-.474-.32-.73a1.03 1.03 0 0 1 .32-.656c.187-.181.413-.284.677-.31.265-.024.516.07.755.285.511.479 1.07.995 1.674 1.547A87.801 87.801 0 0 0 15 24.245a87.802 87.802 0 0 0 2.033-1.795c.605-.552 1.163-1.068 1.674-1.547.239-.23.49-.325.755-.284.264.041.49.152.677.334.188.181.29.404.307.668.017.264-.094.512-.332.743-.546.495-1.13 1.023-1.752 1.584-.622.561-1.291 1.155-2.007 1.782-.187.182-.4.314-.64.396a2.179 2.179 0 0 1-.715.124z" opacity=".5"/>
    </g>
</svg>
