<svg width="24" height="23" viewBox="0 0 24 23" xmlns="http://www.w3.org/2000/svg">
    <path d="M12 2.875a1.797 1.797 0 1 1 .001 3.593 1.797 1.797 0 0 1 0-3.593zm2.157 13.656v-2.998a2.16 2.16 0 0 0 1.437-2.033v-1.438a2.878 2.878 0 0 0-2.875-2.874h-1.437a2.878 2.878 0 0 0-2.875 2.875V11.5c0 .937.601 1.736 1.438 2.033v2.998a.719.719 0 1 0 1.437 0v-3.593a.719.719 0 0 0-.719-.72.719.719 0 0 1-.718-.718v-1.438c0-.792.644-1.437 1.437-1.437h1.437c.793 0 1.438.645 1.438 1.438V11.5a.72.72 0 0 1-.719.719.719.719 0 0 0-.719.719v3.593a.719.719 0 1 0 1.438 0zm6.468.36c0-1.257-1.48-2.256-4.166-2.813a.72.72 0 0 0-.293 1.407c2.26.47 3.02 1.162 3.02 1.406 0 .537-2.444 1.797-7.186 1.797s-7.187-1.26-7.187-1.797c0-.244.761-.936 3.02-1.406a.718.718 0 1 0-.292-1.407c-2.686.557-4.166 1.556-4.166 2.813 0 2.222 4.471 3.234 8.624 3.234 4.154 0 8.625-1.012 8.625-3.234h.001z" fill-rule="nonzero" fill="#FB6161"/>
</svg>
